<svg xmlns="http://www.w3.org/2000/svg" viewBox="0 0 120 120" width="120" height="120" role="img" aria-label="Bright Node mark">
  <defs>
    <radialGradient id="bnGold" cx="50%" cy="50%" r="50%">
      <stop offset="0%" stop-color="#FFF0BF"/>
      <stop offset="30%" stop-color="#FBC03F"/>
      <stop offset="62%" stop-color="#F5A623"/>
      <stop offset="100%" stop-color="#F5A623" stop-opacity="0"/>
    </radialGradient>
    <radialGradient id="bnNode" cx="38%" cy="35%" r="70%">
      <stop offset="0%" stop-color="#5B90F2"/>
      <stop offset="100%" stop-color="#2F6BE0"/>
    </radialGradient>
  </defs>

  <polygon points="60,18 96,38 96,80 60,100 24,80 24,38" fill="none" stroke="#E4E8EE" stroke-width="1.2"/>

  <g stroke="#CBD2DB" stroke-width="1.4">
    <line x1="60" y1="59" x2="60" y2="18"/>
    <line x1="60" y1="59" x2="96" y2="38"/>
    <line x1="60" y1="59" x2="96" y2="80"/>
    <line x1="60" y1="59" x2="60" y2="100"/>
    <line x1="60" y1="59" x2="24" y2="80"/>
    <line x1="60" y1="59" x2="24" y2="38"/>
  </g>

  <g>
    <circle cx="60" cy="18" r="6.5" fill="url(#bnNode)"/>
    <circle cx="96" cy="38" r="6.5" fill="url(#bnNode)"/>
    <circle cx="96" cy="80" r="6.5" fill="url(#bnNode)"/>
    <circle cx="60" cy="100" r="6.5" fill="url(#bnNode)"/>
    <circle cx="24" cy="80" r="6.5" fill="url(#bnNode)"/>
    <circle cx="24" cy="38" r="6.5" fill="url(#bnNode)"/>
  </g>

  <circle cx="60" cy="59" r="20" fill="url(#bnGold)"/>
  <circle cx="60" cy="59" r="7" fill="#F7B233"/>
  <circle cx="60" cy="59" r="3.4" fill="#FFF3D0"/>
</svg>
