<svg xmlns="http://www.w3.org/2000/svg" viewBox="0 0 260 250" width="260" height="250" role="img" aria-label="Bright Node logo">
  <defs>
    <radialGradient id="bnGoldF" cx="50%" cy="50%" r="50%">
      <stop offset="0%" stop-color="#FFF0BF"/>
      <stop offset="30%" stop-color="#FBC03F"/>
      <stop offset="62%" stop-color="#F5A623"/>
      <stop offset="100%" stop-color="#F5A623" stop-opacity="0"/>
    </radialGradient>
    <radialGradient id="bnNodeF" cx="38%" cy="35%" r="70%">
      <stop offset="0%" stop-color="#5B90F2"/>
      <stop offset="100%" stop-color="#2F6BE0"/>
    </radialGradient>
  </defs>

  <g transform="translate(70,10)">
    <polygon points="60,18 96,38 96,80 60,100 24,80 24,38" fill="none" stroke="#E4E8EE" stroke-width="1.2"/>
    <g stroke="#CBD2DB" stroke-width="1.4">
      <line x1="60" y1="59" x2="60" y2="18"/>
      <line x1="60" y1="59" x2="96" y2="38"/>
      <line x1="60" y1="59" x2="96" y2="80"/>
      <line x1="60" y1="59" x2="60" y2="100"/>
      <line x1="60" y1="59" x2="24" y2="80"/>
      <line x1="60" y1="59" x2="24" y2="38"/>
    </g>
    <circle cx="60" cy="18" r="6.5" fill="url(#bnNodeF)"/>
    <circle cx="96" cy="38" r="6.5" fill="url(#bnNodeF)"/>
    <circle cx="96" cy="80" r="6.5" fill="url(#bnNodeF)"/>
    <circle cx="60" cy="100" r="6.5" fill="url(#bnNodeF)"/>
    <circle cx="24" cy="80" r="6.5" fill="url(#bnNodeF)"/>
    <circle cx="24" cy="38" r="6.5" fill="url(#bnNodeF)"/>
    <circle cx="60" cy="59" r="20" fill="url(#bnGoldF)"/>
    <circle cx="60" cy="59" r="7" fill="#F7B233"/>
    <circle cx="60" cy="59" r="3.4" fill="#FFF3D0"/>
  </g>

  <text x="130" y="188" text-anchor="middle" font-family="Inter, 'Segoe UI', sans-serif" font-size="34" font-weight="600">
    <tspan fill="#5B6470">Bright</tspan><tspan fill="#2F6BE0">Node</tspan>
  </text>

  <text x="130" y="214" text-anchor="middle" font-family="Inter, 'Segoe UI', sans-serif" font-size="11" letter-spacing="4" fill="#9AA1AC">DATA&#160;&#160;·&#160;&#160;VISION&#160;&#160;·&#160;&#160;PYTHON</text>
</svg>
